<svg width="1276" height="333" viewBox="0 0 1276 333" fill="none" xmlns="http://www.w3.org/2000/svg">
<path d="M0 88.009C0 39.403 39.403 0 88.0093 0H273.953C273.953 48.6061 234.55 88.009 185.944 88.009H0Z" fill="#325FA6"/>
<path d="M0.144775 122.612C0.144775 171.218 39.5478 210.621 88.1541 210.621H274.098C274.098 162.015 234.695 122.612 186.089 122.612H0.144775Z" fill="#325FA6"/>
<path d="M0 332.987C0 284.381 39.403 244.978 88.0092 244.978H273.953C273.953 293.584 234.55 332.987 185.944 332.987H0Z" fill="#325FA6"/>
<path d="M380.812 189.608C392.815 196.848 409.201 200.468 418.728 200.468C427.112 200.468 431.494 197.42 431.494 191.513C431.494 185.226 426.349 183.13 419.3 180.844L414.155 178.938C400.437 174.746 380.05 168.268 380.05 141.213C380.05 114.157 400.056 104.058 428.255 104.058C440.639 104.058 453.024 105.964 463.694 109.203L461.979 139.688C450.547 134.163 434.542 131.495 427.302 131.495C419.109 131.495 415.108 134.734 415.108 140.26C415.108 145.785 419.49 148.453 426.54 150.739L434.352 153.216C447.689 157.217 468.457 163.505 468.457 189.989C468.457 214.568 450.547 227.905 420.062 227.905C406.915 227.905 392.053 225.238 378.907 220.093L380.812 189.608ZM534.692 224.285C528.785 226.381 520.211 227.905 511.828 227.905C489.154 227.905 476.388 217.045 476.388 195.896V158.17H464.385V135.115C477.532 132.448 484.962 124.064 486.677 110.727H510.684V130.733H534.692V158.17H510.684V188.084C510.684 196.086 514.305 199.516 522.688 199.516C526.118 199.516 531.262 198.754 534.692 197.801V224.285ZM540.991 226V130.733H573.382V151.311C577.193 136.83 588.053 128.828 606.725 128.828V164.648H597.77C587.291 164.648 578.907 168.649 575.287 176.08V226H540.991ZM611.283 194.943V130.733H645.579V184.845C645.579 193.99 649.39 198.373 657.011 198.373C662.537 198.373 667.491 195.515 670.73 192.276V130.733H705.026V226H677.589L674.731 214.187C668.634 221.999 655.868 227.905 642.531 227.905C623.477 227.905 611.283 214.949 611.283 194.943ZM710.88 178.176C710.88 145.595 731.267 128.828 762.134 128.828C771.851 128.828 781.378 130.543 788.427 133.02L785.76 163.505C781.187 160.647 773.566 157.789 765.944 157.789C753.75 157.789 746.129 164.839 746.129 178.748C746.129 192.466 753.179 199.325 767.088 199.325C772.232 199.325 782.902 198.373 788.999 196.658L786.522 224.285C781.187 226.191 770.708 227.905 761.562 227.905C731.077 227.905 710.88 210.567 710.88 178.176ZM863.645 224.285C857.738 226.381 849.164 227.905 840.781 227.905C818.107 227.905 805.342 217.045 805.342 195.896V158.17H793.338V135.115C806.485 132.448 813.916 124.064 815.631 110.727H839.638V130.733H863.645V158.17H839.638V188.084C839.638 196.086 843.258 199.516 851.641 199.516C855.071 199.516 860.215 198.754 863.645 197.801V224.285ZM868.451 194.943V130.733H902.748V184.845C902.748 193.99 906.558 198.373 914.18 198.373C919.705 198.373 924.659 195.515 927.898 192.276V130.733H962.194V226H934.757L931.899 214.187C925.802 221.999 913.036 227.905 899.699 227.905C880.646 227.905 868.451 214.949 868.451 194.943ZM972.431 226V130.733H1004.82V151.311C1008.63 136.83 1019.49 128.828 1038.16 128.828V164.648H1029.21C1018.73 164.648 1010.35 168.649 1006.73 176.08V226H972.431ZM1089.85 227.905C1055.36 227.905 1035.93 209.995 1035.93 178.176C1035.93 145.785 1056.12 128.828 1085.85 128.828C1115 128.828 1129.86 144.833 1129.86 169.412C1129.86 175.699 1128.91 181.606 1127.57 185.988H1068.89C1070.22 193.609 1077.08 202.755 1097.28 202.755C1106.8 202.755 1119.19 201.04 1126.81 198.754L1124.52 222.951C1115.95 225.619 1102.23 227.905 1089.85 227.905ZM1068.51 168.84H1100.52V166.744C1100.52 156.265 1095.75 149.787 1085.66 149.787C1074.99 149.787 1068.7 156.646 1068.51 168.84ZM1135.53 199.325V98.3425H1169.83V193.038C1169.83 197.42 1171.93 199.516 1176.12 199.516C1177.64 199.516 1180.5 199.135 1183.17 198.373L1183.74 225.047C1177.83 226.762 1170.97 227.905 1164.88 227.905C1145.82 227.905 1135.53 217.235 1135.53 199.325ZM1180.23 225.428C1186.52 227.524 1194.52 229.239 1201.57 229.239C1214.34 229.239 1223.29 224.095 1227.86 216.092H1197.95C1189.38 190.18 1180.99 147.691 1179.28 130.733H1213.77C1215.29 147.5 1221.58 184.083 1225.58 198.182H1227.1C1231.1 184.083 1237.39 147.5 1238.92 130.733H1271.69C1269.78 152.263 1260.45 195.134 1252.63 215.521C1243.49 241.243 1229.77 256.485 1202.52 256.485C1193.76 256.485 1183.66 254.961 1177.95 252.484L1180.23 225.428Z" fill="#1C2541"/>
</svg>
