<svg width="903" height="576" viewBox="0 0 903 576" fill="none" xmlns="http://www.w3.org/2000/svg">
<path d="M314 88.009C314 39.403 353.403 0 402.009 0H587.953C587.953 48.6061 548.55 88.009 499.944 88.009H314Z" fill="#325FA6"/>
<path d="M314.145 122.612C314.145 171.218 353.548 210.621 402.154 210.621H588.098C588.098 162.015 548.695 122.612 500.089 122.612H314.145Z" fill="#325FA6"/>
<path d="M314 332.987C314 284.38 353.403 244.978 402.009 244.978H587.953C587.953 293.584 548.55 332.987 499.944 332.987H314Z" fill="#325FA6"/>
<path d="M7.81188 486.608C19.8155 493.848 36.2014 497.468 45.7281 497.468C54.1116 497.468 58.4938 494.42 58.4938 488.513C58.4938 482.226 53.3494 480.13 46.2997 477.844L41.1553 475.938C27.4368 471.746 7.04974 465.268 7.04974 438.213C7.04974 411.157 27.0558 401.058 55.2548 401.058C67.6394 401.058 80.0241 402.964 90.694 406.203L88.9792 436.688C77.5472 431.163 61.5424 428.495 54.3021 428.495C46.1091 428.495 42.1079 431.734 42.1079 437.26C42.1079 442.785 46.4902 445.453 53.54 447.739L61.3518 450.216C74.6892 454.217 95.4574 460.505 95.4574 486.989C95.4574 511.568 77.5472 524.905 47.0618 524.905C33.915 524.905 19.0534 522.238 5.90654 517.093L7.81188 486.608ZM161.692 521.285C155.785 523.381 147.211 524.905 138.828 524.905C116.154 524.905 103.388 514.045 103.388 492.896V455.17H91.3847V432.115C104.532 429.448 111.962 421.064 113.677 407.727H137.684V427.733H161.692V455.17H137.684V485.084C137.684 493.086 141.305 496.516 149.688 496.516C153.118 496.516 158.262 495.754 161.692 494.801V521.285ZM167.991 523V427.733H200.382V448.311C204.193 433.83 215.053 425.828 233.725 425.828V461.648H224.77C214.291 461.648 205.907 465.649 202.287 473.08V523H167.991ZM238.283 491.943V427.733H272.579V481.845C272.579 490.99 276.39 495.373 284.011 495.373C289.537 495.373 294.491 492.515 297.73 489.276V427.733H332.026V523H304.589L301.731 511.187C295.634 518.999 282.868 524.905 269.531 524.905C250.477 524.905 238.283 511.949 238.283 491.943ZM337.88 475.176C337.88 442.595 358.267 425.828 389.134 425.828C398.851 425.828 408.378 427.543 415.427 430.02L412.76 460.505C408.187 457.647 400.566 454.789 392.944 454.789C380.75 454.789 373.129 461.839 373.129 475.748C373.129 489.466 380.179 496.325 394.088 496.325C399.232 496.325 409.902 495.373 415.999 493.658L413.522 521.285C408.187 523.191 397.708 524.905 388.562 524.905C358.077 524.905 337.88 507.567 337.88 475.176ZM490.645 521.285C484.738 523.381 476.164 524.905 467.781 524.905C445.107 524.905 432.342 514.045 432.342 492.896V455.17H420.338V432.115C433.485 429.448 440.916 421.064 442.631 407.727H466.638V427.733H490.645V455.17H466.638V485.084C466.638 493.086 470.258 496.516 478.641 496.516C482.071 496.516 487.215 495.754 490.645 494.801V521.285ZM495.451 491.943V427.733H529.748V481.845C529.748 490.99 533.558 495.373 541.18 495.373C546.705 495.373 551.659 492.515 554.898 489.276V427.733H589.194V523H561.757L558.899 511.187C552.802 518.999 540.036 524.905 526.699 524.905C507.646 524.905 495.451 511.949 495.451 491.943ZM599.431 523V427.733H631.821V448.311C635.632 433.83 646.493 425.828 665.165 425.828V461.648H656.21C645.73 461.648 637.347 465.649 633.727 473.08V523H599.431ZM716.847 524.905C682.361 524.905 662.926 506.995 662.926 475.176C662.926 442.785 683.123 425.828 712.846 425.828C741.998 425.828 756.859 441.833 756.859 466.412C756.859 472.699 755.907 478.606 754.573 482.988H695.888C697.222 490.609 704.081 499.755 724.278 499.755C733.805 499.755 746.189 498.04 753.811 495.754L751.524 519.951C742.95 522.619 729.232 524.905 716.847 524.905ZM695.507 465.84H727.517V463.744C727.517 453.265 722.754 446.787 712.655 446.787C701.986 446.787 695.698 453.646 695.507 465.84ZM762.534 496.325V395.342H796.83V490.038C796.83 494.42 798.925 496.516 803.117 496.516C804.641 496.516 807.499 496.135 810.167 495.373L810.739 522.047C804.832 523.762 797.973 524.905 791.876 524.905C772.822 524.905 762.534 514.235 762.534 496.325ZM807.232 522.428C813.519 524.524 821.522 526.239 828.571 526.239C841.337 526.239 850.292 521.095 854.865 513.092H824.951C816.377 487.18 807.994 444.691 806.279 427.733H840.765C842.29 444.5 848.577 481.083 852.579 495.182H854.103C858.104 481.083 864.392 444.5 865.916 427.733H898.688C896.782 449.263 887.446 492.134 879.634 512.521C870.489 538.243 856.77 553.485 829.524 553.485C820.759 553.485 810.661 551.961 804.945 549.484L807.232 522.428Z" fill="white"/>
</svg>
